<svg width="62" height="60" viewBox="0 0 62 60" fill="none" xmlns="http://www.w3.org/2000/svg">
<path d="M27.0084 29.8047C25.4186 29.8367 23.9063 30.4776 22.8036 31.5863C21.7006 32.6954 21.0965 34.1818 21.124 35.7208C21.124 36.4001 21.693 36.9508 22.395 36.9508C23.0969 36.9508 23.666 36.4001 23.666 35.7208C23.7222 34.873 24.1201 34.0806 24.7733 33.5134C25.4265 32.9458 26.2832 32.6487 27.1602 32.6858C28.0372 32.7229 28.8645 33.0909 29.4642 33.7112C30.064 34.331 30.3885 35.154 30.3687 36.0033C30.3488 36.8529 29.986 37.6604 29.3578 38.2541C28.7296 38.8473 27.8863 39.1788 27.0083 39.1774H6.21534C5.51337 39.1774 4.94434 39.7281 4.94434 40.4074C4.94434 41.0863 5.51338 41.6369 6.21534 41.6369H27.0083C29.1928 41.6369 31.2111 40.5094 32.3029 38.6789C33.3951 36.8483 33.3951 34.5934 32.3029 32.7628C31.2112 30.9322 29.1928 29.8047 27.0084 29.8047Z" fill="#71B0C5"/>
<path d="M45.616 25.3875C45.616 29.4634 42.2018 32.7676 37.9899 32.7676C33.778 32.7676 30.3638 29.4635 30.3638 25.3875C30.3638 21.312 33.778 18.0078 37.9899 18.0078C42.2018 18.0078 45.616 21.3119 45.616 25.3875Z" fill="#71B0C5"/>
<path d="M55.7842 24.1562H49.4292C48.7272 24.1562 48.1582 24.7069 48.1582 25.3862C48.1582 26.0656 48.7273 26.6162 49.4292 26.6162H55.7842C56.4862 26.6162 57.0552 26.0656 57.0552 25.3862C57.0552 24.7069 56.4862 24.1562 55.7842 24.1562Z" fill="#71B0C5"/>
<path d="M37.9907 15.5475C38.328 15.5475 38.651 15.4175 38.8895 15.1873C39.1279 14.9565 39.2617 14.6434 39.2617 14.3175V8.1675C39.2617 7.48817 38.6927 6.9375 37.9907 6.9375C37.2888 6.9375 36.7197 7.48819 36.7197 8.1675V14.3175C36.7197 14.6434 36.8536 14.9565 37.092 15.1873C37.3304 15.4175 37.6534 15.5475 37.9907 15.5475Z" fill="#71B0C5"/>
<path d="M20.1958 26.6163H26.5508C27.2528 26.6163 27.8218 26.0656 27.8218 25.3863C27.8218 24.7069 27.2528 24.1562 26.5508 24.1562H20.1958C19.4938 24.1562 18.9248 24.7069 18.9248 25.3863C18.9248 26.0656 19.4938 26.6163 20.1958 26.6163Z" fill="#71B0C5"/>
<path d="M37.9907 35.2266C37.2888 35.2266 36.7197 35.7773 36.7197 36.4566V42.6066C36.7197 43.2859 37.2888 43.8366 37.9907 43.8366C38.6927 43.8366 39.2617 43.2859 39.2617 42.6066V36.4566C39.2617 36.1307 39.1279 35.8175 38.8895 35.5868C38.6511 35.3561 38.328 35.2266 37.9907 35.2266Z" fill="#71B0C5"/>
<path d="M45.6159 19.2388C45.9537 19.2406 46.2786 19.112 46.5185 18.8817L50.3315 15.1917C50.8239 14.712 50.8239 13.9374 50.3315 13.4577C50.0926 13.2247 49.7676 13.0938 49.4289 13.0938C49.0898 13.0938 48.7653 13.2247 48.5264 13.4577L44.7134 17.1477C44.2205 17.6274 44.2205 18.4019 44.7134 18.8817C44.9532 19.1119 45.2782 19.2406 45.6159 19.2388Z" fill="#71B0C5"/>
<path d="M29.4621 18.929C29.701 19.1616 30.0259 19.293 30.3646 19.293C30.7038 19.293 31.0283 19.1616 31.2671 18.929C31.76 18.4493 31.76 17.6743 31.2671 17.1946L27.4541 13.5046C27.2153 13.2715 26.8908 13.1406 26.5516 13.1406C26.2129 13.1406 25.888 13.2715 25.6491 13.5046C25.1567 13.9843 25.1567 14.7593 25.6491 15.239L29.4621 18.929Z" fill="#71B0C5"/>
<path d="M46.5194 31.9064C46.2806 31.6739 45.9556 31.543 45.6169 31.543C45.2778 31.543 44.9533 31.6739 44.7144 31.9064C44.2215 32.3862 44.2215 33.1612 44.7144 33.6409L48.5274 37.3309C48.7663 37.5639 49.0908 37.6949 49.4299 37.6949C49.7686 37.6949 50.0936 37.5639 50.3324 37.3309C50.8249 36.8512 50.8249 36.0762 50.3324 35.5964L46.5194 31.9064Z" fill="#71B0C5"/>
<path d="M24.3772 43.5312H6.21436C5.51239 43.5312 4.94336 44.0819 4.94336 44.7612C4.94336 45.4406 5.5124 45.9913 6.21436 45.9913H24.3772C25.0219 45.9752 25.6468 46.2087 26.1122 46.6408C26.5777 47.0725 26.8454 47.6667 26.8554 48.2906C26.8658 48.9145 26.6179 49.5165 26.1666 49.9624C25.7158 50.4082 25.099 50.6614 24.4543 50.6646C23.8095 50.6683 23.1899 50.422 22.7339 49.9807C22.2779 49.5394 22.0229 48.9402 22.0262 48.3163C22.0262 47.637 21.4572 47.0863 20.7552 47.0863C20.0533 47.0863 19.4842 47.637 19.4842 48.3163C19.4975 49.5691 20.0235 50.7657 20.9468 51.6442C21.8706 52.5226 23.1161 53.0111 24.4107 53.0024C25.7058 52.9937 26.9442 52.4888 27.8552 51.598C28.7658 50.7076 29.2748 49.5037 29.2705 48.2509C29.2658 46.9976 28.7483 45.7972 27.8311 44.9129C26.9144 44.0285 25.6722 43.5319 24.3771 43.5314L24.3772 43.5312Z" fill="#71B0C5"/>
<path d="M9.39304 37.3817L17.4004 37.308H17.6038V37.3075C18.8308 37.1354 19.8785 36.3618 20.3743 35.2623C20.8705 34.1622 20.7437 32.8928 20.0394 31.9054C19.3355 30.9176 18.1539 30.3522 16.9155 30.4103C15.6771 30.4685 14.5579 31.1418 13.9559 32.1905C13.6049 32.782 13.8154 33.5363 14.426 33.876C15.0367 34.2157 15.8167 34.0115 16.1677 33.4206C16.3314 33.1098 16.6587 32.9115 17.0192 32.9042C17.2751 32.9001 17.5206 33.0031 17.6927 33.1871C17.9742 33.438 18.0929 33.817 18.0035 34.1773C17.9137 34.5371 17.6294 34.8222 17.2604 34.9216H9.39307C8.6911 34.9216 8.12207 35.4723 8.12207 36.1516C8.12207 36.8309 8.69108 37.3817 9.39304 37.3817Z" fill="#71B0C5"/>
</svg>
