<svg width="36" height="35" viewBox="0 0 36 35" fill="none" xmlns="http://www.w3.org/2000/svg">
<path d="M20.7675 23.3655V11.6357L13.3425 17.5008L20.7675 23.3655Z" fill="#A6D885"/>
<path d="M17.9999 2.4324C13.8894 2.4324 9.94773 4.01991 7.04101 6.84562C4.1343 9.67132 2.50171 13.5037 2.50171 17.5001C2.50171 21.4962 4.13458 25.3286 7.04101 28.1546C9.94745 30.9803 13.8893 32.5678 17.9999 32.5678C22.1102 32.5678 26.0521 30.9803 28.9588 28.1546C31.8653 25.3289 33.4981 21.4965 33.4981 17.5001C33.4935 13.5053 31.8592 9.67569 28.9536 6.8504C26.0483 4.02552 22.1091 2.43671 18.0003 2.43213L17.9999 2.4324ZM21.8745 24.4954H21.8742C21.8742 24.7029 21.7514 24.8922 21.5586 24.9814C21.3658 25.0706 21.1373 25.0439 20.9714 24.913L12.1156 17.9171L12.1158 17.9169C11.9865 17.8149 11.9112 17.6613 11.9112 17.4995C11.9112 17.3374 11.9865 17.1839 12.1158 17.0819L20.9717 10.086H20.9714C21.1373 9.95484 21.3658 9.92814 21.5586 10.0173C21.7514 10.1065 21.8742 10.2958 21.8742 10.5036L21.8745 24.4954Z" fill="#A6D885"/>
</svg>
