<svg width="37" height="37" viewBox="0 0 37 37" fill="none" xmlns="http://www.w3.org/2000/svg">
<path d="M22.9783 9.7254H6.92232V23.961C6.92232 24.7619 6.26685 25.4173 5.46602 25.4173C4.66518 25.4173 4.00973 24.7618 4.00973 23.961V8.26925C4.00973 7.4684 4.6652 6.81295 5.46602 6.81295H22.9782L21.9588 5.79364C21.3762 5.211 21.3762 4.30092 21.9588 3.71824C22.5415 3.13557 23.4516 3.1356 24.0342 3.71824L27.5295 7.21352C27.6023 7.28635 27.6388 7.35918 27.7116 7.432C27.7116 7.46842 27.748 7.46842 27.748 7.50483C27.7844 7.57766 27.8208 7.61408 27.8572 7.68691C27.8572 7.72332 27.8937 7.75974 27.8937 7.79615C27.9301 7.86898 27.9301 7.9054 27.9301 7.97822C27.9665 8.08747 27.9665 8.1603 27.9665 8.26954C27.9665 8.37879 27.9665 8.45162 27.9301 8.56086C27.9301 8.63369 27.8937 8.6701 27.8572 8.74293C27.8572 8.77935 27.8573 8.81576 27.8208 8.85218C27.7844 8.925 27.748 8.96142 27.7116 9.03425C27.7116 9.07066 27.6752 9.07067 27.6752 9.10708C27.6388 9.17991 27.5659 9.25274 27.4931 9.32557L23.9978 12.8208C23.7065 13.1122 23.3424 13.2578 22.9785 13.2578C22.6144 13.2578 22.2502 13.1122 21.9592 12.8208C21.3766 12.2382 21.3766 11.3281 21.9592 10.7454L22.9783 9.7254ZM31.7889 12.0554C30.9881 12.0554 30.3326 12.7109 30.3326 13.5117V27.7473H14.2767L15.296 26.728C15.8786 26.1453 15.8786 25.2353 15.296 24.6526C14.7133 24.0699 13.8032 24.0699 13.2206 24.6526L9.76229 28.1843C9.68946 28.2571 9.65304 28.3299 9.58021 28.4028C9.58021 28.4392 9.5438 28.4392 9.5438 28.4756C9.50738 28.5484 9.47097 28.5848 9.43456 28.6577C9.43456 28.6941 9.39814 28.7305 9.39814 28.7669C9.36173 28.8397 9.36173 28.8762 9.36173 28.949C9.32531 29.0582 9.32531 29.1311 9.32531 29.2403C9.32531 29.3495 9.32531 29.4224 9.36173 29.5316C9.36173 29.6044 9.39814 29.6409 9.39814 29.7137C9.39814 29.7501 9.39814 29.7865 9.43456 29.8229C9.47097 29.8958 9.50738 29.9322 9.5438 30.005C9.5438 30.0414 9.58021 30.0414 9.58021 30.0778C9.61663 30.1507 9.68946 30.2235 9.76229 30.2963L13.2576 33.7916C13.5489 34.0829 13.913 34.2286 14.2769 34.2286C14.641 34.2286 15.0052 34.0829 15.2962 33.7916C15.8788 33.209 15.8788 32.2989 15.2962 31.7162L14.2769 30.6969H31.789C32.5898 30.6969 33.2453 30.0414 33.2453 29.2406V13.512C33.2453 12.7111 32.5897 12.0554 31.7889 12.0554Z" fill="#A6D885"/>
</svg>
