<svg width="51" height="51" viewBox="0 0 51 51" fill="none" xmlns="http://www.w3.org/2000/svg">
<path d="M20.4817 5.92969V11.8265C20.1113 11.9626 19.7552 12.1323 19.3996 12.2969L15.2125 8.10981L8.1084 15.214L12.2955 19.401C12.1309 19.7567 11.9612 20.1127 11.8251 20.4831H5.92828V30.5197H11.8251C11.9612 30.8902 12.1309 31.2462 12.2955 31.6018L8.1084 35.7889L15.2125 42.893L19.3996 38.7059C19.7553 38.8705 20.1113 39.0402 20.4817 39.1763V45.0731H30.5183V39.1763C30.8888 39.0402 31.2448 38.8705 31.6004 38.7059L35.7875 42.893L42.8916 35.7889L38.7045 31.6018C38.8691 31.2462 39.0388 30.8901 39.1749 30.5197H45.0717V20.4831H39.1749C39.0388 20.1127 38.8691 19.7566 38.7045 19.401L42.8916 15.214L35.7875 8.10981L31.6004 12.2969C31.2447 12.1323 30.8887 11.9626 30.5183 11.8265V5.92969H20.4817ZM25.5003 16.9704C30.2119 16.9704 34.0316 20.7898 34.0316 25.5017C34.0316 30.2134 30.2118 34.0331 25.5003 34.0331C20.7888 34.0331 16.969 30.2133 16.969 25.5017C16.969 20.7901 20.7884 16.9704 25.5003 16.9704Z" fill="#77726A"/>
</svg>
