<svg width="35" height="38" viewBox="0 0 35 38" fill="none" xmlns="http://www.w3.org/2000/svg">
<path d="M27.7861 0.625C29.0353 0.0510113 30.4891 0.139847 31.6592 0.861328L31.6621 0.863281C31.8534 0.984448 32.0334 1.12249 32.2002 1.27539C32.2874 1.33519 32.3726 1.39787 32.4551 1.46387L32.709 1.68457L32.7148 1.68945C33.6864 2.65909 34.1093 4.04902 33.8457 5.39551L33.8467 5.39648L33.7119 6.16113L34.0215 14.2246V14.2275C34.035 14.7751 33.8828 15.3133 33.5869 15.7744L21.2246 35.8867L21.2256 35.8877C20.8441 36.5132 20.2289 36.9609 19.5166 37.1318C18.8935 37.2811 18.2403 37.2086 17.6689 36.9307L17.4297 36.7988L13.0488 34.1045C12.9211 34.1301 12.7921 34.1484 12.6621 34.1562L12.4971 34.1611C11.7647 34.1637 11.0611 33.8733 10.5439 33.3545L8.48633 31.2998L6.00977 29.7734C5.38546 29.3901 4.93887 28.7742 4.76855 28.0615V28.0605C4.72578 27.8798 4.70303 27.6951 4.69922 27.5098L1.0625 23.877C0.542251 23.3573 0.250073 22.6521 0.25 21.917C0.25 21.1819 0.542354 20.4767 1.0625 19.957L17.7441 3.26758L17.7471 3.26465C18.1404 2.88188 18.6394 2.62573 19.1797 2.5293L27.0752 0.949219L27.7861 0.625ZM31.8965 15.2373C31.7894 15.7736 31.5256 16.2666 31.1387 16.6533L14.4463 33.3457C14.4274 33.364 14.4061 33.3797 14.3867 33.3975L18.0928 35.6875C18.426 35.8947 18.8285 35.96 19.21 35.8691C19.5913 35.7783 19.9209 35.5392 20.125 35.2041L20.126 35.2021L32.1895 15.5957L32.2432 15.5088L32.4922 15.1016L32.5459 15.0059C32.6628 14.7784 32.7193 14.5233 32.709 14.2666L32.6074 11.6396L31.8965 15.2373ZM29.8096 1.77148C29.6234 1.77387 29.4382 1.79341 29.2559 1.83008H29.2549L27.4521 2.1875L25.7754 2.51953L24.0957 2.85254L19.4199 3.78027C19.1355 3.83762 18.8744 3.97732 18.6689 4.18262L1.97949 20.8926C1.70464 21.1679 1.5498 21.5415 1.5498 21.9307C1.54983 22.3194 1.70404 22.6924 1.97852 22.9678L5.625 26.6143L5.94531 26.9385L9.31348 30.3066H9.3125L10.5205 31.4941L10.5225 31.4951L11.4561 32.4297L11.5781 32.5371C11.8328 32.7382 12.1472 32.8498 12.4717 32.8535L12.6348 32.8457C12.7931 32.8292 12.9478 32.7891 13.0938 32.7266L13.2139 32.667C13.3303 32.6029 13.4372 32.5231 13.5322 32.4297L30.2266 15.7402C30.4313 15.5342 30.5699 15.2714 30.625 14.9863V14.9854L32.3848 6.03418L32.5586 5.15039L32.5596 5.14844C32.7511 4.22509 32.4611 3.26721 31.79 2.60449C31.6593 2.47774 31.5184 2.3619 31.3691 2.25781V2.25684C30.9097 1.94184 30.366 1.77289 29.8096 1.77148Z" fill="#A6D885" stroke="#A6D885" stroke-width="0.5"/>
<path d="M15.0492 11.501C17.5154 11.2738 19.927 12.323 21.4408 14.2832C22.9544 16.2434 23.3594 18.8417 22.516 21.1699C21.6724 23.4986 19.6968 25.2339 17.2787 25.7695C14.8605 26.3055 12.3366 25.5672 10.5883 23.8125C9.88756 23.1129 9.33959 22.2755 8.97989 21.3525L8.97891 21.3496L8.96133 21.3057V21.3018C8.93553 21.2349 8.91041 21.1697 8.88809 21.1035L8.80704 20.8516C8.74895 20.6686 8.70313 20.4865 8.65958 20.3086L8.6586 20.3047C8.23354 18.4583 8.55217 16.5185 9.5463 14.9053C10.5402 13.292 12.1303 12.1349 13.9711 11.6846C14.1575 11.6389 14.3543 11.6024 14.5238 11.5742C14.6556 11.5523 14.8579 11.5047 15.0492 11.501ZM15.7094 12.7559C15.3268 12.7565 14.9449 12.7913 14.5688 12.8613L14.5697 12.8623C14.3957 12.8966 14.2281 12.9384 14.0443 12.9922C13.8604 13.046 13.6655 13.1113 13.4789 13.1836C12.2968 13.6557 11.298 14.4959 10.6313 15.5801C9.96413 16.665 9.66515 17.9365 9.77774 19.2051L9.70059 19.2109L9.77774 19.209C9.79273 19.4208 9.81873 19.6003 9.85294 19.7988L9.91153 20.0635C9.93255 20.1513 9.9548 20.2393 9.97891 20.3271L10.0951 20.6885C10.3908 21.5203 10.8699 22.2767 11.4994 22.9004L11.5004 22.9014C12.6167 24.0137 14.1286 24.6387 15.7045 24.6387C17.2801 24.6386 18.7914 24.0135 19.9076 22.9014L20.1107 22.6875C21.0973 21.5975 21.6476 20.1772 21.6479 18.7002C21.648 17.1248 21.023 15.6137 19.9096 14.499C18.7963 13.3846 17.2849 12.7573 15.7094 12.7559Z" fill="#A6D885" stroke="#A6D885" stroke-width="0.5"/>
<path d="M13.1157 14.5176C14.1849 13.8952 15.4708 13.8512 16.2514 14.6318L16.4614 14.8418H16.4604C16.5888 14.9583 16.6655 15.1212 16.6723 15.2949C16.6792 15.4744 16.6113 15.6489 16.4838 15.7764V15.7773C16.3568 15.9038 16.1826 15.9728 16.0024 15.9658C15.8652 15.9605 15.7347 15.9107 15.6284 15.8271H15.6235L15.5502 15.7559L15.3364 15.5459L15.3344 15.543C15.1727 15.38 14.9113 15.3031 14.5708 15.3477C14.3037 15.3826 14.005 15.4917 13.7104 15.6729L15.7192 17.6816C16.8664 16.8356 18.3148 16.6962 19.1909 17.5713L19.6147 17.9912L19.6167 17.9922C20.4745 18.8545 20.3325 20.3176 19.5112 21.4609C19.7143 21.6811 19.7378 22.0073 19.5786 22.251L19.4956 22.3535C19.2717 22.5783 18.9239 22.603 18.6713 22.4287H18.6518L18.5815 22.3564C18.0195 22.7821 17.3412 23.0303 16.6333 23.0625H16.6293C16.0695 23.0789 15.526 22.8703 15.1215 22.4824L14.9067 22.2676C14.6563 22.0155 14.6562 21.6084 14.9067 21.3564L14.9077 21.3555C15.1598 21.1054 15.5666 21.1051 15.8188 21.3555L16.0288 21.5654C16.1929 21.7282 16.457 21.8059 16.7983 21.7617C17.0656 21.7271 17.3634 21.6172 17.6577 21.4365L15.6479 19.4268C14.5001 20.2693 13.0491 20.41 12.1733 19.5342L11.7495 19.1104C11.3811 18.7261 11.1752 18.215 11.1733 17.6826L11.1743 17.6816C11.1672 17.2829 11.2375 16.8866 11.3842 16.5156C11.5051 16.2048 11.6674 15.9124 11.8637 15.6436L11.8598 15.6396V15.6387C11.7881 15.5664 11.7353 15.4761 11.7085 15.377L11.7094 15.376C11.6414 15.1545 11.696 14.9133 11.8549 14.7441L11.8647 14.7344L11.9467 14.668C12.0332 14.6092 12.1331 14.5724 12.2377 14.5605C12.4089 14.5374 12.5812 14.5835 12.7172 14.6875L12.7739 14.7354L12.7768 14.7393L12.7778 14.7402C12.8004 14.7239 12.8222 14.7063 12.8452 14.6904L12.8354 14.6807L13.1157 14.5176ZM18.2807 18.4854C18.1165 18.3226 17.8525 18.2449 17.5112 18.2891C17.2438 18.3237 16.9452 18.4325 16.6508 18.6133L18.5747 20.5371C18.7543 20.2465 18.8637 19.9484 18.8979 19.6787C18.9414 19.3356 18.8641 19.0669 18.7006 18.8984L18.2817 18.4854H18.2807ZM12.7895 16.5791C12.6095 16.8698 12.5015 17.1682 12.4672 17.4365C12.4235 17.7796 12.5015 18.0459 12.6655 18.21L13.0854 18.6299C13.249 18.7935 13.5148 18.8716 13.8579 18.8271C14.1261 18.7923 14.4236 18.6812 14.7143 18.501L12.7895 16.5791Z" fill="#A6D885" stroke="#A6D885" stroke-width="0.5"/>
<path d="M27.7554 2.91895C28.6601 2.88499 29.5444 3.19246 30.2329 3.78027C30.8897 4.34164 31.3209 5.1194 31.4526 5.9707L31.4575 5.97363L31.4712 6.09375C31.6156 7.32605 31.1162 8.54547 30.1489 9.32227C29.1812 10.0991 27.8821 10.3234 26.7104 9.91602C25.5386 9.50855 24.6592 8.52677 24.3823 7.31738C24.1057 6.10817 24.4703 4.84139 25.3481 3.96484H25.3491C25.9915 3.32643 26.8505 2.95295 27.7554 2.91895ZM27.9009 4.21289C27.7113 4.21517 27.5229 4.24042 27.3393 4.28809L27.3345 4.29004C27.0518 4.35712 26.7838 4.47653 26.5464 4.64453C26.449 4.71481 26.3578 4.7941 26.271 4.87891C25.728 5.46809 25.529 6.29729 25.7456 7.06934C25.9633 7.84446 26.5697 8.45039 27.3452 8.66797C28.1175 8.88494 28.9464 8.68478 29.5356 8.14062C29.6212 8.05535 29.7006 7.96307 29.771 7.86426C29.9389 7.62882 30.0607 7.36271 30.1284 7.08203H30.1294C30.2866 6.45974 30.1787 5.79999 29.8276 5.26172C29.472 4.71691 28.9017 4.34809 28.2593 4.24609V4.24512C28.1406 4.22593 28.0206 4.21525 27.9009 4.21289Z" fill="#A6D885" stroke="#A6D885" stroke-width="0.5"/>
</svg>
