<svg width="44" height="47" viewBox="0 0 44 47" fill="none" xmlns="http://www.w3.org/2000/svg">
<path d="M39.8956 33.4565C40.5583 32.5597 40.9517 31.4244 40.9517 30.1981C40.9517 27.276 38.7277 24.9004 35.9989 24.9004C33.2633 24.9004 31.0394 27.276 31.0394 30.1981C31.0394 31.4244 31.4395 32.5597 32.0954 33.4565C30.1863 34.8299 28.999 37.1352 28.999 39.6438L28.9997 41.7182C28.9997 42.2367 29.3935 42.6501 29.8721 42.6501H42.1199C42.6054 42.6501 42.9924 42.2295 42.9924 41.7182V39.6442C42.9924 37.1284 41.8051 34.8302 39.896 33.4565H39.8956ZM35.9925 26.7719C37.7636 26.7719 39.2004 28.3066 39.2004 30.1984C39.2004 31.3405 38.6626 32.3356 37.8687 32.9663C36.4451 34.0944 34.7397 33.4848 34.123 32.9663C33.3426 32.3148 32.7914 31.3405 32.7914 30.1984C32.7846 28.3062 34.2278 26.7719 35.9925 26.7719ZM41.2404 40.7865H30.744V39.6444C30.744 37.5984 31.7937 35.7205 33.4533 34.7394C33.4664 34.7465 33.4862 34.7533 33.5057 34.7673C34.2405 35.2227 35.0868 35.4892 35.9919 35.4892C36.8972 35.4892 37.7499 35.2227 38.478 34.7673C38.4911 34.7602 38.5109 34.7534 38.524 34.7394C40.1837 35.7205 41.2334 37.5911 41.2334 39.6444L41.2337 40.7865H41.2404Z" fill="#71B0C5"/>
<path d="M11.9041 33.4565C12.5667 32.5597 12.9602 31.4244 12.9602 30.1981C12.9602 27.276 10.7362 24.9004 8.00734 24.9004C5.27177 24.9004 3.0478 27.276 3.0478 30.1981C3.0478 31.4244 3.44794 32.5597 4.10388 33.4565C2.19512 34.8302 1.00781 37.1284 1.00781 39.6442V41.7182C1.00781 42.2367 1.40158 42.6501 1.88025 42.6501H14.1281C14.6135 42.6501 15.0005 42.2295 15.0005 41.7182V39.6442C15.0005 37.1284 13.8132 34.8302 11.9041 33.4565ZM8.00734 26.7719C9.77842 26.7719 11.2152 28.3066 11.2152 30.1984C11.2152 31.3405 10.6774 32.3356 9.88352 32.9663C8.45988 34.0944 6.75454 33.4848 6.13785 32.9663C5.35737 32.3148 4.80616 31.3405 4.80616 30.1984C4.79945 28.3062 6.23625 26.7719 8.00734 26.7719ZM13.2555 40.7865H2.75913V39.6444C2.75913 37.5984 3.80886 35.7205 5.46848 34.7394C5.48158 34.7465 5.50138 34.7533 5.52085 34.7673C6.25569 35.2227 7.10193 35.4892 8.00702 35.4892C8.91238 35.4892 9.76505 35.2227 10.4932 34.7673C10.5063 34.7602 10.5261 34.7534 10.5392 34.7394C12.1988 35.7205 13.2485 37.5911 13.2485 39.6444V40.7865H13.2555Z" fill="#71B0C5"/>
<path d="M28.9996 19.0852C28.9996 16.5766 27.8123 14.2713 25.9032 12.8979C26.5659 12.0011 26.9593 10.8658 26.9593 9.63949C26.9593 6.71741 24.7353 4.3418 22.0065 4.3418C19.2709 4.3418 17.0469 6.71741 17.0469 9.63949C17.0469 10.8658 17.4471 12.0011 18.103 12.8979C16.1939 14.2713 15.0066 16.5766 15.0066 19.0852V21.1593C15.0066 21.6778 15.4004 22.0912 15.879 22.0912H28.1268C28.6123 22.0912 28.9993 21.6706 28.9993 21.1593L28.9996 19.0852ZM22.0001 6.21253C23.7712 6.21253 25.208 7.74728 25.208 9.63912C25.208 10.7812 24.6702 11.7762 23.8763 12.407C22.4526 13.5351 20.7473 12.9255 20.1306 12.407C19.3501 11.7554 18.7989 10.7812 18.7989 9.63912C18.7922 7.75407 20.2287 6.21253 22.0001 6.21253ZM27.248 20.2272H16.7516V19.0847C16.7516 17.0387 17.8013 15.1608 19.4609 14.1797C19.474 14.1868 19.4938 14.1937 19.5133 14.2076C20.2481 14.663 21.0943 14.9295 21.9994 14.9295C22.9048 14.9295 23.7575 14.663 24.4856 14.2076C24.4987 14.2005 24.5185 14.1937 24.5316 14.1797C26.1912 15.1608 27.241 17.0314 27.241 19.0847V20.2272H27.248Z" fill="#71B0C5"/>
<path d="M22.8722 30.0582V24.9007C22.8722 24.3822 22.4785 23.9688 21.9998 23.9688C21.5144 23.9688 21.1274 24.3894 21.1274 24.9007V30.0582L17.0799 33.5128C16.7059 33.8351 16.6405 34.4236 16.9422 34.8302C17.1128 35.0615 17.7294 35.3979 18.1756 34.9773L21.9998 31.7049L25.8244 34.9773C26.3689 35.3767 26.8805 35.0615 27.051 34.8302C27.3528 34.424 27.2937 33.8423 26.9133 33.5128L22.8722 30.0582Z" fill="#71B0C5"/>
<path d="M28.9007 12.4633C32.502 14.4602 35.0738 18.1952 35.7821 22.4554C35.8542 22.9107 36.2282 23.2263 36.6414 23.2263C36.6938 23.2263 36.7465 23.2191 36.7922 23.2123C37.2712 23.1212 37.5861 22.6379 37.5008 22.1333C36.7069 17.3054 33.7877 13.0731 29.7073 10.8093C29.281 10.5712 28.7495 10.7462 28.5263 11.2087C28.3038 11.6641 28.4743 12.2246 28.9006 12.4627L28.9007 12.4633Z" fill="#71B0C5"/>
<path d="M25.2795 39.3915C23.0555 40.0011 20.9366 40.0011 18.7193 39.3915C18.2537 39.2653 17.7747 39.5597 17.6502 40.0642C17.532 40.5615 17.8143 41.0732 18.2799 41.2062C19.5331 41.5429 20.7859 41.7179 21.9997 41.7179C23.2133 41.7179 24.4664 41.5426 25.7192 41.1994C26.1848 41.0732 26.4671 40.5619 26.349 40.0642C26.2241 39.5596 25.7454 39.2653 25.2795 39.3915Z" fill="#71B0C5"/>
<path d="M7.20664 23.212C7.25901 23.2192 7.31172 23.226 7.35737 23.226C7.77732 23.226 8.14457 22.9108 8.21675 22.4551C8.91868 18.1948 11.4901 14.4598 15.0981 12.463C15.5244 12.2249 15.695 11.6641 15.4721 11.2015C15.2492 10.7461 14.7241 10.564 14.2911 10.8021C10.2044 13.0654 7.29159 17.2978 6.49762 22.1261C6.41302 22.6382 6.7279 23.1216 7.2066 23.2126L7.20664 23.212Z" fill="#71B0C5"/>
</svg>
