<svg width="51" height="51" viewBox="0 0 51 51" fill="none" xmlns="http://www.w3.org/2000/svg">
<mask id="mask0_13_1129" style="mask-type:luminance" maskUnits="userSpaceOnUse" x="0" y="7" width="51" height="38">
<path d="M0 7H50.1842V44.6523H0V7Z" fill="white"/>
</mask>
<g mask="url(#mask0_13_1129)">
<path d="M0 7.00781V44.6462H50.1842V7.00781H0ZM3.1365 10.1443H47.0473V41.5093H42.9793L27.1493 21.7588C26.9925 21.602 26.7871 21.514 26.61 21.514C26.433 21.514 26.2478 21.602 26.1692 21.7588L21.6603 27.3953L32.9331 41.5099H29.0125C29.483 41.5099 29.6195 41.187 29.3075 40.8733L11.4684 18.6226C11.3116 18.4658 11.1062 18.3779 10.9291 18.3779C10.7537 18.3779 10.5669 18.4658 10.4883 18.6226L3.13621 27.7875V10.1447L3.1365 10.1443ZM37.6382 21.1223C35.3954 21.1223 33.4542 22.2939 32.3453 24.0627L39.6973 33.2762C42.1471 32.4229 43.9128 30.1365 43.9128 27.3954C43.9128 23.9312 41.1039 21.1223 37.6397 21.1223H37.6382Z" fill="#71B0C5"/>
</g>
</svg>
