<svg width="40" height="38" viewBox="0 0 40 38" fill="none" xmlns="http://www.w3.org/2000/svg">
<path d="M25.1226 22.6938C24.7719 22.6938 24.4353 22.8267 24.1876 23.0632C23.9396 23.2994 23.8002 23.6203 23.8002 23.9547V30.2584H15.8666V6.30383C15.8669 6.0514 15.7875 5.80459 15.6392 5.59532C15.4906 5.38637 15.2797 5.22465 15.0336 5.13143L8.1843 2.52136H23.8004V13.8684C23.8004 14.3189 24.0523 14.7349 24.4614 14.9601C24.8705 15.1854 25.3747 15.1854 25.7838 14.9601C26.1929 14.7349 26.4449 14.3189 26.4449 13.8684V1.26093C26.4449 0.926543 26.3054 0.605919 26.0578 0.369424C25.8097 0.132945 25.4731 0 25.1228 0H1.32242C1.17349 0.00187679 1.02586 0.0272139 0.8861 0.0756989H0.806708L0.6348 0.163912L0.489465 0.289972H0.423197C0.317234 0.389445 0.23587 0.509874 0.185354 0.643132V0.71883C0.0810282 0.883679 0.0177123 1.06917 0 1.26092V31.5192C0 31.772 0.079063 32.0185 0.227673 32.2277C0.376283 32.4367 0.587227 32.5984 0.833276 32.692L14.0558 37.735H14.0554C14.2106 37.7954 14.3773 37.8254 14.5449 37.8232C14.8087 37.8239 15.0665 37.7491 15.2854 37.609C15.6495 37.3741 15.8677 36.9818 15.867 36.5624V32.7803H25.1229C25.4733 32.7803 25.8099 32.6473 26.0579 32.4108C26.3056 32.1744 26.4451 31.8537 26.4451 31.5193V23.9551C26.4451 23.6207 26.3056 23.2997 26.0579 23.0636C25.8099 22.8271 25.4733 22.6941 25.1229 22.6941L25.1226 22.6938ZM13.222 34.6959L2.6442 30.6613L2.64388 3.12647L13.2217 7.16104L13.222 34.6959Z" fill="#77726A"/>
<path d="M39.2832 18.0174L33.9941 12.9743C33.6588 12.6546 33.17 12.5295 32.7117 12.6468C32.2534 12.7638 31.8958 13.1051 31.7727 13.5417C31.65 13.9787 31.7809 14.4448 32.1166 14.7645L35.1577 17.6518H19.8331C19.3607 17.6518 18.924 17.892 18.6878 18.2821C18.4515 18.6721 18.4516 19.1529 18.6878 19.543C18.924 19.933 19.3606 20.1733 19.8331 20.1733H35.1577L32.1166 23.0605C31.8662 23.2973 31.7255 23.6195 31.7255 23.9558C31.7255 24.2917 31.8662 24.6139 32.1166 24.8507C32.3649 25.0894 32.7028 25.2236 33.0552 25.2236C33.4078 25.2236 33.7457 25.0894 33.9941 24.8507L39.2832 19.8076C39.4036 19.6878 39.4977 19.5464 39.5607 19.3916C39.6929 19.0847 39.6929 18.7403 39.5607 18.4335C39.4977 18.2786 39.4036 18.1372 39.2832 18.0174Z" fill="#77726A"/>
</svg>
