<svg id="svg" fill="#5E5951" stroke="#5E5951" width="209" height="209" version="1.1" viewBox="144 144 512 512" xmlns="http://www.w3.org/2000/svg" stroke-width="10">
    <g id="IconSvg_bgCarrier" stroke-width="0"></g>
    <g id="IconSvg_tracerCarrier" stroke-linecap="round" stroke-linejoin="round" stroke="#CCCCCC" stroke-width="0">
      <g xmlns="http://www.w3.org/2000/svg">
  <path d="m559.05 311.23-76.023-76.023c-1.9141-1.9141-4.4336-2.9727-7.1055-2.9727s-5.2383 1.0586-7.1055 2.9727l-201.02 200.92c-0.60547 0.60547-1.0586 1.2578-1.4609 1.9141-0.10156 0.20312-0.20312 0.40234-0.30078 0.55469-0.30078 0.55469-0.50391 1.1094-0.70703 1.7148-0.050781 0.15234-0.10156 0.25-0.15234 0.35156l-26.852 102.88c-0.90625 3.4766 0.10156 7.1523 2.6211 9.6719 1.9141 1.9141 4.4844 2.9727 7.1055 2.9727 0.85547 0 1.7148-0.10156 2.5703-0.30078l102.88-26.852c0.15234-0.050782 0.25-0.10156 0.35156-0.15234 0.60547-0.20312 1.1602-0.40234 1.7148-0.70703 0.20313-0.10156 0.40234-0.20312 0.55469-0.30078 0.70703-0.40234 1.3086-0.90625 1.9141-1.4609l200.92-200.92c4.0195-3.9297 4.0195-10.277 0.089843-14.258zm-208.07 193.82-61.816-61.766 144.75-144.75 61.816 61.766zm-70.734-42.219 51.188 51.188-69.223 18.086zm229.74-116.79-61.766-61.766 27.66-27.66 61.816 61.77z"></path>
  <path d="m546.86 543.73h-151.8c-5.543 0-10.078 4.5352-10.078 10.078s4.5352 10.078 10.078 10.078h151.85c5.543 0 10.078-4.5352 10.078-10.078-0.003906-5.543-4.5352-10.078-10.129-10.078z"></path>
 </g>

      </g>
     <g id="IconSvg_iconCarrier">
      <g xmlns="http://www.w3.org/2000/svg">
  <path d="m559.05 311.23-76.023-76.023c-1.9141-1.9141-4.4336-2.9727-7.1055-2.9727s-5.2383 1.0586-7.1055 2.9727l-201.02 200.92c-0.60547 0.60547-1.0586 1.2578-1.4609 1.9141-0.10156 0.20312-0.20312 0.40234-0.30078 0.55469-0.30078 0.55469-0.50391 1.1094-0.70703 1.7148-0.050781 0.15234-0.10156 0.25-0.15234 0.35156l-26.852 102.88c-0.90625 3.4766 0.10156 7.1523 2.6211 9.6719 1.9141 1.9141 4.4844 2.9727 7.1055 2.9727 0.85547 0 1.7148-0.10156 2.5703-0.30078l102.88-26.852c0.15234-0.050782 0.25-0.10156 0.35156-0.15234 0.60547-0.20312 1.1602-0.40234 1.7148-0.70703 0.20313-0.10156 0.40234-0.20312 0.55469-0.30078 0.70703-0.40234 1.3086-0.90625 1.9141-1.4609l200.92-200.92c4.0195-3.9297 4.0195-10.277 0.089843-14.258zm-208.07 193.82-61.816-61.766 144.75-144.75 61.816 61.766zm-70.734-42.219 51.188 51.188-69.223 18.086zm229.74-116.79-61.766-61.766 27.66-27.66 61.816 61.77z"></path>
  <path d="m546.86 543.73h-151.8c-5.543 0-10.078 4.5352-10.078 10.078s4.5352 10.078 10.078 10.078h151.85c5.543 0 10.078-4.5352 10.078-10.078-0.003906-5.543-4.5352-10.078-10.129-10.078z"></path>
 </g>

      </g>
      </svg>