<svg width="46" height="46" viewBox="0 0 46 46" fill="none" xmlns="http://www.w3.org/2000/svg">
<g clip-path="url(#clip0_499_867)">
<path d="M4.74375 24.848C4.74375 24.4304 5.08628 24.0875 5.50462 24.0875C5.92296 24.0875 6.26513 24.4301 6.26513 24.848C6.26513 25.2664 5.92295 25.6089 5.50462 25.6089C5.08593 25.6089 4.74375 25.266 4.74375 24.848ZM41.2562 9.30778V37.4531C41.2562 39.1342 39.8946 40.4959 38.2135 40.4959L7.78613 40.4955C6.10506 40.4955 4.74303 39.1338 4.74303 37.4528V27.8907C4.74303 27.4724 5.08556 27.1298 5.5039 27.1298C5.92224 27.1298 6.26441 27.4724 6.26441 27.8907V37.4528C6.26441 38.2891 6.94877 38.9742 7.78618 38.9742H38.2136C39.0499 38.9742 39.735 38.2895 39.735 37.4528L39.7346 13.8715H6.26424V21.8048C6.26424 22.2231 5.92206 22.5656 5.50373 22.5656C5.0854 22.5656 4.74286 22.2231 4.74286 21.8048V9.30751C4.74286 7.62959 6.10767 6.26477 7.78596 6.26477H9.30737C9.30737 5.84433 9.64745 5.50391 10.0679 5.50391C10.4883 5.50391 10.8287 5.84433 10.8287 6.26477H12.3502C12.3502 5.84433 12.6906 5.50391 13.1107 5.50391C13.5311 5.50391 13.8715 5.84433 13.8715 6.26477H15.393C15.393 5.84433 15.7334 5.50391 16.1538 5.50391C16.5743 5.50391 16.9143 5.84433 16.9143 6.26477H18.4357C18.4357 5.84433 18.7762 5.50391 19.1966 5.50391C19.6171 5.50391 19.9571 5.84433 19.9571 6.26477H26.043C26.043 5.84433 26.3834 5.50391 26.8035 5.50391C27.2239 5.50391 27.5643 5.84433 27.5643 6.26477H29.0858C29.0858 5.84433 29.4262 5.50391 29.8466 5.50391C30.2671 5.50391 30.6071 5.84433 30.6071 6.26477H32.1285C32.1285 5.84433 32.469 5.50391 32.8894 5.50391C33.3099 5.50391 33.6499 5.84433 33.6499 6.26477H35.1717C35.1717 5.84433 35.5118 5.50391 35.9322 5.50391C36.3526 5.50391 36.6931 5.84433 36.6931 6.26477H38.2145C39.8913 6.26477 41.2559 7.62932 41.2559 9.30751L41.2562 9.30778ZM6.2648 12.3509H39.7352V9.30778C39.7352 8.469 39.0526 7.78636 38.2138 7.78636H36.692V8.54723C36.692 8.96767 36.3516 9.30774 35.9311 9.30774C35.5107 9.30774 35.1706 8.96766 35.1706 8.54723V7.78636H33.6489V8.54723C33.6489 8.96767 33.3088 9.30774 32.8883 9.30774C32.4679 9.30774 32.1275 8.96766 32.1275 8.54723V7.78636H30.6061V8.54723C30.6061 8.96767 30.266 9.30774 29.8456 9.30774C29.4251 9.30774 29.0847 8.96766 29.0847 8.54723V7.78636H27.5633V8.54723C27.5633 8.96767 27.2228 9.30774 26.8024 9.30774C26.3823 9.30774 26.0419 8.96766 26.0419 8.54723V7.78636H19.9568V8.54723C19.9568 8.96767 19.6167 9.30774 19.1963 9.30774C18.7758 9.30774 18.4354 8.96766 18.4354 8.54723V7.78636H16.914V8.54723C16.914 8.96767 16.5739 9.30774 16.1535 9.30774C15.733 9.30774 15.3926 8.96766 15.3926 8.54723V7.78636H13.8712V8.54723C13.8712 8.96767 13.5308 9.30774 13.1103 9.30774C12.6902 9.30774 12.3498 8.96766 12.3498 8.54723V7.78636H10.8284V8.54723C10.8284 8.96767 10.488 9.30774 10.0675 9.30774C9.64709 9.30774 9.30702 8.96766 9.30702 8.54723V7.78636H7.78561C6.94683 7.78636 6.26383 8.46897 6.26383 9.30778L6.2648 12.3509ZM26.8031 25.2821C26.8031 24.0236 27.8269 22.9999 29.0853 22.9999H32.128C33.3866 22.9999 34.4102 24.0236 34.4102 25.2821V26.043H35.9317C37.1902 26.043 38.2139 27.0664 38.2139 28.3248V35.1712C38.2139 36.4297 37.1901 37.4534 35.9317 37.4534L25.2816 37.453C24.023 37.453 22.9997 36.4293 22.9997 35.1708V28.3245C22.9997 27.0659 24.0235 26.0426 25.2816 26.0426H26.803L26.8031 25.2821ZM28.3245 26.043H32.8887V25.2821C32.8887 24.8623 32.5479 24.5216 32.1278 24.5216H29.085C28.6653 24.5216 28.3245 24.8624 28.3245 25.2821L28.3245 26.043ZM35.9317 27.564H25.2817C24.8619 27.564 24.5212 27.9048 24.5212 28.3245V29.0854H36.6923V28.3245C36.6923 27.9051 36.3511 27.564 35.9317 27.564ZM36.6923 30.6067H35.1708V31.3676C35.1708 31.7877 34.8304 32.1281 34.41 32.1281C33.9895 32.1281 33.6491 31.7877 33.6491 31.3676V30.6067H27.5636V31.3676C27.5636 31.7877 27.2232 32.1281 26.8028 32.1281C26.3827 32.1281 26.0423 31.7877 26.0423 31.3676V30.6067H24.5208V35.1709C24.5208 35.5906 24.8616 35.9318 25.2813 35.9318H35.9314C36.3512 35.9318 36.6923 35.5906 36.6923 35.1709L36.6923 30.6067ZM9.30788 17.6755C9.72621 17.6755 10.0684 17.333 10.0684 16.9147C10.0684 16.4963 9.72621 16.1538 9.30788 16.1538C8.88955 16.1538 8.54701 16.4963 8.54701 16.9147C8.54701 17.333 8.88954 17.6755 9.30788 17.6755ZM13.8717 17.6755C14.29 17.6755 14.6325 17.333 14.6325 16.9147C14.6325 16.4963 14.29 16.1538 13.8717 16.1538C13.4533 16.1538 13.1108 16.4963 13.1108 16.9147C13.1108 17.333 13.4533 17.6755 13.8717 17.6755ZM18.4362 17.6755C18.8545 17.6755 19.1971 17.333 19.1971 16.9147C19.1971 16.4963 18.8545 16.1538 18.4362 16.1538C18.0178 16.1538 17.6757 16.4963 17.6757 16.9147C17.6757 17.333 18.0179 17.6755 18.4362 17.6755ZM23.0003 17.6755C23.4187 17.6755 23.7608 17.333 23.7608 16.9147C23.7608 16.4963 23.4187 16.1538 23.0003 16.1538C22.582 16.1538 22.2395 16.4963 22.2395 16.9147C22.2395 17.333 22.582 17.6755 23.0003 17.6755ZM27.5641 17.6755C27.9825 17.6755 28.325 17.333 28.325 16.9147C28.325 16.4963 27.9825 16.1538 27.5641 16.1538C27.1458 16.1538 26.8033 16.4963 26.8033 16.9147C26.8033 17.333 27.1458 17.6755 27.5641 17.6755ZM32.1286 17.6755C32.547 17.6755 32.8895 17.333 32.8895 16.9147C32.8895 16.4963 32.547 16.1538 32.1286 16.1538C31.7103 16.1538 31.3681 16.4963 31.3681 16.9147C31.3681 17.333 31.7103 17.6755 32.1286 17.6755ZM36.6928 17.6755C37.1111 17.6755 37.4533 17.333 37.4533 16.9147C37.4533 16.4963 37.1111 16.1538 36.6928 16.1538C36.2745 16.1538 35.9319 16.4963 35.9319 16.9147C35.9319 17.333 36.2745 17.6755 36.6928 17.6755ZM9.30842 21.4788C9.72675 21.4788 10.0689 21.1366 10.0689 20.7183C10.0689 20.3 9.72675 19.9574 9.30842 19.9574C8.89009 19.9574 8.54755 20.3 8.54755 20.7183C8.54755 21.1366 8.89008 21.4788 9.30842 21.4788ZM13.8722 21.4788C14.2905 21.4788 14.6331 21.1366 14.6331 20.7183C14.6331 20.3 14.2906 19.9574 13.8722 19.9574C13.4539 19.9574 13.1113 20.3 13.1113 20.7183C13.1117 21.1366 13.4539 21.4788 13.8722 21.4788ZM18.4367 21.4788C18.8551 21.4788 19.1976 21.1366 19.1976 20.7183C19.1976 20.3 18.8551 19.9574 18.4367 19.9574C18.0184 19.9574 17.6762 20.3 17.6762 20.7183C17.6759 21.1366 18.0184 21.4788 18.4367 21.4788ZM23.0009 21.4788C23.4192 21.4788 23.7614 21.1366 23.7614 20.7183C23.7614 20.3 23.4192 19.9574 23.0009 19.9574C22.5825 19.9574 22.24 20.3 22.24 20.7183C22.24 21.1366 22.5825 21.4788 23.0009 21.4788ZM27.5647 21.4788C27.983 21.4788 28.3255 21.1366 28.3255 20.7183C28.3255 20.3 27.983 19.9574 27.5647 19.9574C27.1463 19.9574 26.8038 20.3 26.8038 20.7183C26.8042 21.1366 27.1463 21.4788 27.5647 21.4788ZM32.1292 21.4788C32.5475 21.4788 32.8901 21.1366 32.8901 20.7183C32.8901 20.3 32.5475 19.9574 32.1292 19.9574C31.7108 19.9574 31.3687 20.3 31.3687 20.7183C31.3683 21.1366 31.7109 21.4788 32.1292 21.4788ZM36.6933 21.4788C37.1117 21.4788 37.4538 21.1366 37.4538 20.7183C37.4538 20.3 37.1117 19.9574 36.6933 19.9574C36.275 19.9574 35.9325 20.3 35.9325 20.7183C35.9328 21.1366 36.275 21.4788 36.6933 21.4788ZM9.30896 25.2824C9.72729 25.2824 10.0695 24.9399 10.0695 24.5219C10.0695 24.1036 9.72729 23.761 9.30896 23.761C8.89063 23.761 8.54809 24.1036 8.54809 24.5219C8.54809 24.9395 8.89062 25.2824 9.30896 25.2824ZM13.8728 25.2824C14.2911 25.2824 14.6336 24.9399 14.6336 24.5219C14.6336 24.1036 14.2911 23.761 13.8728 23.761C13.4544 23.761 13.1119 24.1036 13.1119 24.5219C13.1122 24.9395 13.4544 25.2824 13.8728 25.2824ZM18.4373 25.2824C18.8556 25.2824 19.1981 24.9399 19.1981 24.5219C19.1981 24.1036 18.8556 23.761 18.4373 23.761C18.0189 23.761 17.6768 24.1036 17.6768 24.5219C17.6764 24.9395 18.0189 25.2824 18.4373 25.2824ZM23.0014 25.2824C23.4197 25.2824 23.7619 24.9399 23.7619 24.5219C23.7619 24.1036 23.4197 23.761 23.0014 23.761C22.5831 23.761 22.2405 24.1036 22.2405 24.5219C22.2405 24.9395 22.5831 25.2824 23.0014 25.2824ZM9.30923 29.8462C9.72756 29.8462 10.0697 29.504 10.0697 29.0857C10.0697 28.6674 9.72756 28.3248 9.30923 28.3248C8.8909 28.3248 8.54836 28.6674 8.54836 29.0857C8.54836 29.504 8.89089 29.8462 9.30923 29.8462ZM13.873 29.8462C14.2914 29.8462 14.6339 29.504 14.6339 29.0857C14.6339 28.6674 14.2914 28.3248 13.873 28.3248C13.4547 28.3248 13.1122 28.6674 13.1122 29.0857C13.1122 29.504 13.4547 29.8462 13.873 29.8462ZM18.4375 29.8462C18.8559 29.8462 19.1984 29.504 19.1984 29.0857C19.1984 28.6674 18.8559 28.3248 18.4375 28.3248C18.0192 28.3248 17.677 28.6674 17.677 29.0857C17.677 29.504 18.0192 29.8462 18.4375 29.8462ZM9.30941 33.6498C9.30941 34.0703 9.64949 34.4107 10.0699 34.4107H17.6772C18.0976 34.4107 18.4377 34.0703 18.4377 33.6498C18.4377 33.2294 18.0976 32.8893 17.6772 32.8893H10.0703C9.64984 32.8893 9.30941 33.2294 9.30941 33.6498ZM10.0703 35.9321C9.64984 35.9321 9.30977 36.2721 9.30977 36.6926C9.30977 37.113 9.64985 37.4534 10.0703 37.4534H14.6348C15.0549 37.4534 15.3953 37.113 15.3953 36.6926C15.3953 36.2721 15.0549 35.9321 14.6348 35.9321H10.0703Z" fill="#A6D885"/>
</g>
<defs>
<clipPath id="clip0_499_867">
<rect width="46" height="46" fill="white"/>
</clipPath>
</defs>
</svg>
