<svg width="47" height="47" viewBox="0 0 47 47" fill="none" xmlns="http://www.w3.org/2000/svg">
<g clip-path="url(#clip0_269_339)">
<path d="M44.0103 22.5724L24.4269 2.98902C24.1823 2.74586 23.8514 2.60937 23.5065 2.60938C23.1616 2.60938 22.8307 2.74586 22.5861 2.98902L3.00277 22.5724C2.78889 22.8221 2.67712 23.1434 2.68982 23.472C2.70251 23.8005 2.83872 24.1122 3.07123 24.3447C3.30374 24.5772 3.61543 24.7135 3.94401 24.7261C4.27259 24.7388 4.59385 24.6271 4.84361 24.4132L23.5 5.7568L42.1564 24.4262C42.4061 24.6401 42.7274 24.7519 43.056 24.7392C43.3846 24.7265 43.6962 24.5903 43.9288 24.3578C44.1613 24.1253 44.2975 23.8136 44.3102 23.485C44.3229 23.1564 44.2111 22.8352 43.9972 22.5854L44.0103 22.5724Z" fill="#71B0C5"/>
<path d="M36.5556 41.7786H30.0278V28.7231H16.9723V41.7786H10.4445V23.5008L7.83337 26.1119V41.7786C7.83337 42.4711 8.10847 43.1353 8.59815 43.6249C9.08783 44.1146 9.75198 44.3897 10.4445 44.3897H19.5834V31.3342H27.4167V44.3897H36.5556C37.2481 44.3897 37.9123 44.1146 38.4019 43.6249C38.8916 43.1353 39.1667 42.4711 39.1667 41.7786V25.7986L36.5556 23.1875V41.7786Z" fill="#71B0C5"/>
</g>
<defs>
<clipPath id="clip0_269_339">
<rect width="47" height="47" fill="white"/>
</clipPath>
</defs>
</svg>
