<svg width="34" height="24" viewBox="0 0 34 24" fill="none" xmlns="http://www.w3.org/2000/svg">
<path d="M22.0992 11.5762C22.0992 12.9716 21.5448 14.31 20.558 15.2967C19.5713 16.2835 18.2329 16.8379 16.8375 16.8379C15.442 16.8379 14.1036 16.2835 13.1169 15.2967C12.1301 14.31 11.5757 12.9716 11.5757 11.5762C11.5757 10.1807 12.1301 8.84233 13.1169 7.85557C14.1036 6.86881 15.442 6.31445 16.8375 6.31445C18.2329 6.31445 19.5713 6.86881 20.558 7.85557C21.5448 8.84233 22.0992 10.1807 22.0992 11.5762Z" fill="#B1B1B1"/>
<path d="M0 11.5758C0 11.5758 6.31405 0 16.8375 0C27.3609 0 33.6749 11.5758 33.6749 11.5758C33.6749 11.5758 27.3609 23.1515 16.8375 23.1515C6.31405 23.1515 0 11.5758 0 11.5758ZM16.8375 18.9421C18.7911 18.9421 20.6648 18.166 22.0463 16.7846C23.4277 15.4031 24.2038 13.5294 24.2038 11.5758C24.2038 9.62206 23.4277 7.7484 22.0463 6.36693C20.6648 4.98546 18.7911 4.20936 16.8375 4.20936C14.8838 4.20936 13.0101 4.98546 11.6286 6.36693C10.2472 7.7484 9.47107 9.62206 9.47107 11.5758C9.47107 13.5294 10.2472 15.4031 11.6286 16.7846C13.0101 18.166 14.8838 18.9421 16.8375 18.9421Z" fill="#B1B1B1"/>
</svg>
