<svg width="37" height="36" viewBox="0 0 37 36" fill="none" xmlns="http://www.w3.org/2000/svg">
<g clip-path="url(#clip0_499_859)">
<path d="M18 14.875C18.2818 14.875 18.552 14.9869 18.7513 15.1862C18.9506 15.3855 19.0625 15.6557 19.0625 15.9375V19.125H22.25C22.5318 19.125 22.802 19.2369 23.0013 19.4362C23.2006 19.6355 23.3125 19.9057 23.3125 20.1875C23.3125 20.4693 23.2006 20.7395 23.0013 20.9388C22.802 21.1381 22.5318 21.25 22.25 21.25H19.0625V24.4375C19.0625 24.7193 18.9506 24.9895 18.7513 25.1888C18.552 25.3881 18.2818 25.5 18 25.5C17.7182 25.5 17.448 25.3881 17.2487 25.1888C17.0494 24.9895 16.9375 24.7193 16.9375 24.4375V21.25H13.75C13.4682 21.25 13.198 21.1381 12.9987 20.9388C12.7994 20.7395 12.6875 20.4693 12.6875 20.1875C12.6875 19.9057 12.7994 19.6355 12.9987 19.4362C13.198 19.2369 13.4682 19.125 13.75 19.125H16.9375V15.9375C16.9375 15.6557 17.0494 15.3855 17.2487 15.1862C17.448 14.9869 17.7182 14.875 18 14.875Z" fill="#B1B1B1"/>
<path d="M8.4375 0C8.71929 0 8.98954 0.111942 9.1888 0.311199C9.38806 0.510456 9.5 0.780707 9.5 1.0625V2.125H26.5V1.0625C26.5 0.780707 26.6119 0.510456 26.8112 0.311199C27.0105 0.111942 27.2807 0 27.5625 0C27.8443 0 28.1145 0.111942 28.3138 0.311199C28.5131 0.510456 28.625 0.780707 28.625 1.0625V2.125H30.75C31.8772 2.125 32.9582 2.57277 33.7552 3.3698C34.5522 4.16683 35 5.24783 35 6.375V29.75C35 30.8772 34.5522 31.9582 33.7552 32.7552C32.9582 33.5522 31.8772 34 30.75 34H5.25C4.12283 34 3.04183 33.5522 2.2448 32.7552C1.44777 31.9582 1 30.8772 1 29.75V6.375C1 5.24783 1.44777 4.16683 2.2448 3.3698C3.04183 2.57277 4.12283 2.125 5.25 2.125H7.375V1.0625C7.375 0.780707 7.48694 0.510456 7.6862 0.311199C7.88546 0.111942 8.15571 0 8.4375 0ZM3.125 8.5V29.75C3.125 30.3136 3.34888 30.8541 3.7474 31.2526C4.14591 31.6511 4.68641 31.875 5.25 31.875H30.75C31.3136 31.875 31.8541 31.6511 32.2526 31.2526C32.6511 30.8541 32.875 30.3136 32.875 29.75V8.5H3.125Z" fill="#B1B1B1"/>
</g>
<defs>
<clipPath id="clip0_499_859">
<rect width="34" height="34" fill="white" transform="translate(1)"/>
</clipPath>
</defs>
</svg>
