<svg width="38" height="36" viewBox="0 0 38 36" fill="none" xmlns="http://www.w3.org/2000/svg">
<path d="M19 2.50195C9.97871 2.50195 2.6407 9.45382 2.6407 18.0002C2.6407 26.546 9.97878 33.4985 19 33.4985C28.0205 33.4985 35.3593 26.5466 35.3593 18.0002C35.359 9.45375 28.0209 2.50195 19 2.50195ZM19 31.2837C11.2679 31.2837 4.97785 25.3247 4.97785 17.9995C4.97785 10.6744 11.2679 4.71539 19 4.71539C26.7321 4.71539 33.0221 10.6744 33.0221 17.9995C33.0218 25.3247 26.7318 31.2837 19 31.2837Z" fill="#A6D885"/>
<path d="M30.685 18C30.685 18.6111 30.1626 19.1068 29.5166 19.1068H20.1688V27.9627C20.1688 28.5738 19.6464 29.0695 19.0004 29.0695C18.3542 29.0695 17.8321 28.5735 17.8321 27.9627V19.1068H8.4835C7.83728 19.1068 7.31515 18.6108 7.31515 18C7.31515 17.3889 7.83758 16.8931 8.4835 16.8931H17.8314V8.03655C17.8314 7.42543 18.3538 6.92969 18.9997 6.92969C19.6459 6.92969 20.1681 7.42572 20.1681 8.03655V16.8924H29.5159C30.1624 16.8924 30.6846 17.3884 30.6846 17.9995L30.685 18Z" fill="#A6D885"/>
</svg>
