<svg width="55" height="55" viewBox="0 0 55 55" fill="none" xmlns="http://www.w3.org/2000/svg">
<path d="M43.8711 42.9613C44.3738 42.9613 44.7804 43.3684 44.7804 43.8711C44.7804 44.3734 44.3738 44.7804 43.8711 44.7804L35.6852 44.78C35.1825 44.78 34.7759 44.3729 34.7759 43.8707C34.7759 43.368 35.1826 42.9609 35.6852 42.9609L43.8711 42.9613ZM24.2344 22.1247C23.9973 22.1616 23.7799 22.2796 23.6335 22.4705C23.4791 22.6614 23.4149 22.8977 23.443 23.1436C23.4447 23.1566 23.4489 23.1679 23.451 23.1809C23.5219 23.6165 23.9016 23.9442 24.3439 23.9442C24.3792 23.9442 24.4153 23.9354 24.4522 23.9354H24.4618C24.9385 23.8733 25.283 23.4427 25.2536 22.969C25.2524 22.9543 25.2553 22.9405 25.2532 22.9258C25.189 22.4336 24.7522 22.0702 24.2344 22.1247ZM10.218 15.0391C10.218 13.4445 11.424 12.1059 13.0345 11.7598C13.4524 9.84554 15.2925 8.39996 17.4946 8.39996C19.6633 8.39996 21.4823 9.80439 21.9346 11.6759C23.9811 11.6314 25.6801 13.1512 25.6801 15.0392C25.6801 16.8951 24.0482 18.4049 22.042 18.4049H13.8566C11.8499 18.4049 10.2181 16.8951 10.2181 15.0392L10.218 15.0391ZM12.0375 15.0391C12.0375 15.8921 12.8541 16.5857 13.8566 16.5857H22.0425C23.0453 16.5857 23.8615 15.8921 23.8615 15.0391C23.8615 14.1868 23.0454 13.4927 22.0425 13.4927C21.8364 13.4927 21.6254 13.5288 21.3979 13.6035C21.1109 13.695 20.7949 13.6413 20.557 13.4558C20.3182 13.2703 20.1873 12.9779 20.2079 12.677C20.2096 12.6493 20.2213 12.5561 20.2259 12.5297C20.2243 11.2788 19.0003 10.2188 17.4955 10.2188C15.9907 10.2188 14.7668 11.2796 14.7668 12.5834C14.7668 13.0861 14.3597 13.4931 13.857 13.4931C12.8537 13.4931 12.0375 14.1868 12.0375 15.0391ZM48.4181 40.2338C48.9204 40.2338 49.3274 39.8268 49.3274 39.3241C49.3274 38.8214 48.9203 38.4143 48.4181 38.4143H42.1717C40.0988 38.3925 37.811 38.3338 35.7881 38.1865C35.1045 38.1323 34.4818 38.069 33.9199 37.996C31.7668 37.7698 30.2902 37.1202 30.1672 36.881C30.1697 36.8643 30.1748 36.8454 30.184 36.8231C30.1852 36.8206 30.1861 36.8181 30.1873 36.8156C30.1962 36.7963 30.2075 36.7724 30.2234 36.7442C30.2482 36.6993 30.2788 36.6507 30.3145 36.5982C30.4374 36.4182 30.6074 36.2092 30.7202 36.0712C30.9162 35.8316 31.1273 35.5685 31.2989 35.2844C31.3211 35.2487 31.3425 35.2114 31.3639 35.1736C31.3803 35.1443 31.3958 35.1145 31.4109 35.0847C31.4294 35.0477 31.4462 35.0087 31.463 34.9701C31.5662 34.7372 31.6308 34.4922 31.6291 34.2324C31.6291 34.232 31.6296 34.2312 31.6296 34.2303C31.6312 34.1447 31.6233 34.0629 31.6107 33.9823C31.6069 33.9614 31.6035 33.9408 31.5989 33.9194C31.5884 33.8695 31.5746 33.822 31.5595 33.775C31.5515 33.7494 31.5452 33.7251 31.5364 33.6999C31.5289 33.6789 31.5184 33.6588 31.51 33.6382C31.4894 33.59 31.4684 33.5426 31.4428 33.4968C31.4332 33.4784 31.4227 33.4612 31.4126 33.4431C31.3367 33.313 31.2431 33.1922 31.1281 33.0789C31.1076 33.0583 31.0849 33.0382 31.0627 33.0185C31.0404 32.9979 31.0173 32.9778 30.9943 32.958C30.9506 32.9207 30.9061 32.8855 30.8604 32.8523C32.1889 31.8591 34.903 30.2284 38.4139 30.2284L43.8706 30.228C44.3733 30.228 44.7799 29.821 44.7799 29.3183C44.7799 28.8156 44.3733 28.4085 43.8706 28.4085H38.4135C33.3759 28.4085 29.8307 31.2657 28.9079 32.0952C28.863 32.0848 28.8181 32.0743 28.7715 32.0638C28.7652 32.0621 28.7585 32.0604 28.7527 32.0596C28.5235 32.0088 28.2781 31.9593 28.0078 31.9098C27.1711 31.7642 26.1255 31.6823 25.0156 31.5829C24.6476 31.5535 24.2729 31.5208 23.8998 31.4864C23.7353 31.4713 23.5733 31.4553 23.4093 31.439C23.0933 31.4071 22.7748 31.3722 22.458 31.3341C21.8487 31.2594 21.2495 31.1683 20.6906 31.0559C19.7305 30.8502 18.9328 30.5771 18.4422 30.2842C18.2836 30.1826 18.1447 30.0735 18.039 29.9539C18.0591 29.7425 18.3151 29.2364 18.4716 28.9263C18.4871 28.8948 18.5039 28.8613 18.5207 28.829C18.5211 28.8285 18.522 28.8273 18.5224 28.8264L18.5236 28.8243C18.647 28.5801 18.7792 28.3082 18.8954 28.0187C18.9013 28.0036 18.9072 27.9889 18.9135 27.9738C18.9315 27.9293 18.9483 27.8836 18.9651 27.8378C18.9819 27.7908 18.9991 27.7438 19.015 27.6956C19.0247 27.6654 19.0339 27.6352 19.0431 27.6045C19.0574 27.5584 19.0708 27.513 19.083 27.4665C19.1732 27.1333 19.2177 26.7867 19.1887 26.4397C19.1875 26.4287 19.1862 26.4191 19.185 26.4086C19.1787 26.3436 19.1745 26.2781 19.1627 26.2131C19.2357 26.1489 19.3704 26.0314 19.5874 25.8698C19.9411 25.6059 20.5143 25.2236 21.2604 24.8598C21.7026 24.6475 21.8919 24.1355 21.7018 23.6891C21.6963 23.6761 21.6938 23.6627 21.6875 23.6497C21.4786 23.2141 20.9146 23.0047 20.479 23.2225C19.3608 23.7542 18.574 24.3324 18.1418 24.6941C15.8418 22.9632 10.443 22.9397 9.29835 22.9498H6.58133C6.07863 22.9498 5.67203 23.3568 5.67203 23.8595C5.67203 24.3622 6.07864 24.7688 6.58133 24.7688H9.10446C9.11075 24.7722 9.11621 24.7747 9.12292 24.7776C9.18083 24.8061 9.23999 24.8368 9.29999 24.8678C9.32181 24.8787 9.34279 24.8897 9.3642 24.9014C9.4242 24.9333 9.48504 24.9664 9.54589 25.0004C9.56855 25.013 9.59121 25.0252 9.61429 25.0382C9.67429 25.0722 9.73388 25.107 9.7943 25.1431C9.8199 25.1578 9.84466 25.1733 9.87025 25.1884C9.92858 25.2237 9.98648 25.2598 10.0444 25.2967C10.0721 25.3147 10.0998 25.3315 10.1271 25.3491C10.1829 25.3852 10.2378 25.4217 10.2932 25.4591C10.3234 25.4792 10.3532 25.4998 10.383 25.5203C10.4351 25.5564 10.4863 25.5929 10.5383 25.6298C10.5702 25.6525 10.6016 25.6764 10.6331 25.6995C10.6814 25.7356 10.7288 25.7717 10.7766 25.8082C10.8098 25.8338 10.8417 25.8598 10.874 25.885C10.9176 25.9206 10.9617 25.9559 11.0045 25.9916C11.038 26.0197 11.0699 26.0478 11.1018 26.0759C11.1413 26.1107 11.1803 26.1447 11.2181 26.1791C11.2512 26.2102 11.2823 26.2404 11.3137 26.2706C11.3477 26.3037 11.3825 26.3365 11.4149 26.37C11.4467 26.4024 11.4761 26.4351 11.5059 26.4674C11.5344 26.4989 11.5642 26.5308 11.5915 26.5626C11.6209 26.5966 11.6469 26.631 11.6733 26.665C11.6973 26.6952 11.722 26.7255 11.7438 26.7553C11.7698 26.7909 11.7912 26.8262 11.8143 26.8614C11.8328 26.8895 11.8521 26.9176 11.8685 26.9458C11.8903 26.9835 11.9075 27.0205 11.9247 27.0578C11.9364 27.0826 11.9511 27.1086 11.9616 27.1338C11.9784 27.1749 11.9897 27.2156 12.0011 27.2567C12.0069 27.2768 12.0157 27.2974 12.0199 27.3171C12.0334 27.3771 12.0405 27.4367 12.0401 27.4942C12.0388 27.9419 11.7463 28.5495 11.4631 29.1366C10.9562 30.1885 10.3251 31.4981 10.9629 32.8036C11.5978 34.104 13.2729 34.9856 16.3957 35.6616C20.5088 36.5524 21.2221 37.0883 21.3208 37.2049C21.3052 37.3644 20.9914 37.8104 20.7627 38.1348C20.4475 38.5829 20.0833 39.1007 19.7824 39.7217C17.3806 38.454 13.4584 38.4104 12.9499 38.4104L6.58009 38.4113C6.07738 38.4113 5.67078 38.8183 5.67078 39.321C5.67078 39.8237 6.07739 40.2307 6.58009 40.2307H12.947C14.7362 40.2324 17.8225 40.5841 19.214 41.4976C19.0063 42.605 18.9995 43.9121 19.9294 45.1029C19.9664 45.1494 20.0041 45.196 20.0436 45.2426C20.049 45.2497 20.0549 45.256 20.0608 45.2631C20.1002 45.3093 20.1409 45.3559 20.1841 45.402C20.1892 45.4075 20.1946 45.4134 20.1997 45.4188C20.289 45.5145 20.386 45.6106 20.4917 45.7067C20.4988 45.713 20.5051 45.7193 20.5119 45.7252C20.5643 45.7721 20.6189 45.8191 20.6763 45.8666C20.6822 45.8716 20.6893 45.8771 20.6952 45.8817C20.7519 45.9282 20.8115 45.9752 20.8731 46.0218C20.8757 46.0235 20.8786 46.026 20.8811 46.0281C20.9428 46.0743 21.0078 46.1209 21.0741 46.1666C21.0867 46.1746 21.0989 46.1834 21.1111 46.1922C21.1778 46.2375 21.2462 46.2824 21.3179 46.3273C21.3288 46.3344 21.3402 46.3407 21.3511 46.3479C21.4182 46.3894 21.4879 46.4314 21.5605 46.4729C21.5714 46.4788 21.5823 46.4859 21.5936 46.4918C21.67 46.535 21.7493 46.5782 21.8307 46.6219C21.8508 46.6324 21.8714 46.6429 21.892 46.6538C21.9742 46.6966 22.0581 46.7385 22.1463 46.7805C22.163 46.7885 22.1811 46.7969 22.1983 46.8048C22.2784 46.8426 22.3607 46.8799 22.4454 46.9173C22.4656 46.9265 22.4853 46.9353 22.5059 46.9437C22.5999 46.9844 22.6981 47.0256 22.7979 47.0658C22.8256 47.0767 22.8533 47.0881 22.8806 47.099C22.9838 47.1397 23.0896 47.18 23.1999 47.2203C23.2184 47.2265 23.2368 47.2333 23.2553 47.2396C23.3577 47.2765 23.4639 47.313 23.5713 47.3495C23.596 47.3575 23.6204 47.3663 23.646 47.3751C23.7668 47.4149 23.891 47.4548 24.019 47.4934C24.032 47.4972 24.0434 47.5014 24.0564 47.5048L6.5799 47.5056C6.0772 47.5056 5.67059 47.9126 5.67059 48.4153C5.67059 48.918 6.07721 49.3251 6.5799 49.3251H48.4175C48.9198 49.3251 49.3268 48.918 49.3268 48.4153C49.3268 47.9126 48.9198 47.5056 48.4175 47.5056H44.779C43.9104 47.5056 43.0657 47.5014 42.2449 47.4922C29.9387 47.357 23.0991 46.2056 21.3632 43.9829C20.8643 43.3442 20.7917 42.6087 21.1034 41.359C21.3195 40.4967 21.8113 39.7981 22.2448 39.1829C22.8088 38.3818 23.3916 37.5539 23.0211 36.6035C22.5847 35.486 21.0094 34.7995 16.7768 33.8827C13.599 33.1941 12.7912 32.4111 12.5932 32.0053C12.3603 31.5273 12.6419 30.8718 13.0976 29.9252C13.469 29.1552 13.8525 28.3584 13.8554 27.4986C13.8559 27.3878 13.8462 27.2783 13.8324 27.17C13.8298 27.1474 13.8269 27.1239 13.8231 27.1016C13.8068 26.9967 13.7854 26.8927 13.7564 26.7911C13.7522 26.7756 13.7468 26.7601 13.7417 26.7445C13.7136 26.651 13.6813 26.5591 13.6444 26.4684C13.6372 26.4516 13.6309 26.4344 13.6238 26.4168C13.5814 26.319 13.534 26.2221 13.482 26.1269C13.4715 26.1076 13.4602 26.0883 13.4497 26.0694C13.3972 25.9766 13.3414 25.886 13.2814 25.7966C13.278 25.7924 13.2759 25.7878 13.2726 25.7832C13.2088 25.69 13.1404 25.5998 13.0695 25.5104C13.0552 25.4924 13.041 25.4748 13.0263 25.4567C12.9549 25.369 12.8811 25.283 12.8039 25.1991C12.7967 25.192 12.7905 25.1848 12.7833 25.1773C12.7086 25.0971 12.6314 25.0187 12.553 24.9431C12.5454 24.9356 12.5378 24.9268 12.5299 24.9192C14.6393 25.1408 16.6786 25.604 17.2829 26.3627C17.3139 26.4013 17.3357 26.4446 17.3521 26.4916C17.3534 26.4953 17.3542 26.4995 17.3555 26.5033C17.3651 26.5344 17.3685 26.5692 17.3722 26.6036C17.3764 26.6409 17.3773 26.6808 17.3756 26.7219C17.3743 26.745 17.3735 26.7681 17.3701 26.7924C17.3286 27.1248 17.1205 27.5662 16.8494 28.1024C16.8288 28.1431 16.8078 28.1847 16.7873 28.2262C16.7533 28.2938 16.7189 28.3622 16.6849 28.4318C16.5133 28.7835 16.3509 29.159 16.2703 29.538C16.1793 29.9651 16.1969 30.3952 16.4218 30.8002C16.4268 30.809 16.431 30.817 16.4361 30.8258C16.4684 30.882 16.5057 30.9374 16.5468 30.9924C16.5611 31.0112 16.5724 31.0297 16.5867 31.0486C16.6572 31.135 16.7365 31.216 16.8171 31.2957C16.8892 31.3654 16.9639 31.4317 17.0407 31.4959C17.0537 31.5064 17.0663 31.5165 17.0785 31.5274C17.1528 31.5874 17.2283 31.6465 17.3084 31.7023C17.4033 31.7678 17.4985 31.8328 17.6005 31.8933C17.606 31.8966 17.6118 31.8991 17.6173 31.9025C18.1565 32.216 18.8011 32.456 19.5115 32.6456C19.5152 32.6469 19.519 32.6477 19.5228 32.649C19.6222 32.6754 19.7263 32.6989 19.8278 32.7233C20.0188 32.7678 20.2147 32.808 20.4136 32.8466C20.8718 32.9394 21.346 33.017 21.8319 33.0833C21.8873 33.0913 21.9414 33.0997 21.9964 33.1076C22.0598 33.1156 22.124 33.1211 22.1882 33.1295C22.6082 33.1815 23.0312 33.2289 23.4558 33.27C23.4806 33.2721 23.5058 33.2751 23.5305 33.2776C23.8662 33.3095 24.1919 33.3376 24.5108 33.3649C24.6421 33.3762 24.7764 33.3888 24.9069 33.4001C25.0911 33.4156 25.2724 33.4316 25.4511 33.4467C26.0445 33.4983 26.6068 33.5512 27.0952 33.6141C27.3084 33.6418 27.5077 33.6708 27.6898 33.7031C29.0465 33.941 29.571 34.1869 29.7594 34.3069C29.7611 34.3082 29.7636 34.309 29.7653 34.3107C29.6679 34.4819 29.4518 34.7454 29.3117 34.917C29.0339 35.2556 28.6864 35.6807 28.4901 36.1629C28.3365 36.5418 28.2769 36.9551 28.4175 37.3899C28.4347 37.4453 28.4552 37.4998 28.4787 37.5535C28.4901 37.5791 28.5056 37.6056 28.5186 37.6316C28.5408 37.6769 28.5618 37.7218 28.5891 37.7675C28.7318 38.008 28.9386 38.2236 29.1984 38.42C29.8538 38.9152 30.8698 39.2777 32.1806 39.5429C32.6002 39.6277 33.048 39.7036 33.5259 39.7691C35.8601 40.0909 38.8646 40.2017 42.2984 40.2311C43.6253 40.242 45.0158 40.2416 46.4564 40.2361L48.4181 40.2338ZM27.9445 23.9164C29.863 24.0079 32.0186 24.1799 34.1103 24.3444C36.8118 24.5618 39.3589 24.7716 41.141 24.7716C44.3251 24.7716 47.4491 24.1128 48.4175 23.8904C48.4977 23.8719 48.5682 23.8556 48.6173 23.8438L48.6362 23.835C49.1175 23.7171 49.4175 23.2169 49.2996 22.7348C49.1989 22.3257 48.8359 22.0437 48.4175 22.0437C48.3445 22.0437 48.2715 22.0525 48.2077 22.0705C48.1989 22.0705 48.1989 22.0705 48.1448 22.0886C47.4717 22.243 46.7441 22.3886 45.9893 22.5069C44.7791 22.7071 42.9601 22.953 41.141 22.953H41.1318C39.4764 22.953 36.9755 22.7532 34.3373 22.5439C32.2094 22.3706 29.9989 22.1981 28.0259 22.107C27.5257 22.0714 27.0977 22.4713 27.0712 22.9715C27.0712 22.9736 27.0717 22.9757 27.0712 22.9777C27.0565 23.4742 27.4456 23.8992 27.9445 23.9164ZM23.8608 41.1426C23.3581 41.1426 22.9515 41.5492 22.9515 42.0519C22.9515 42.5546 23.3581 42.9616 23.8608 42.9616H29.3179C29.8206 42.9616 30.2277 42.5546 30.2277 42.0519C30.2277 41.5492 29.8206 41.1426 29.3179 41.1426H23.8608ZM30.9251 15.2539C30.4689 14.5317 30.2268 13.7038 30.2268 12.8574C30.2268 10.3167 32.3854 8.26268 34.934 8.4078C35.9869 6.72719 37.8558 5.67188 39.8671 5.67188C42.6143 5.67188 44.9406 7.56562 45.5365 10.1765C47.1991 10.6326 48.4167 12.1689 48.4167 13.9488C48.4167 14.3173 48.3659 14.679 48.2656 15.0226C48.1532 15.4108 47.7969 15.6768 47.3928 15.6768L31.6931 15.6764C31.3818 15.6764 31.091 15.5169 30.9248 15.2538L30.9251 15.2539ZM32.0463 12.8574C32.0463 13.2007 32.1139 13.5397 32.2431 13.8574H46.5968C46.5515 12.8129 45.7232 11.946 44.6754 11.8642C44.239 11.8306 43.8886 11.489 43.8424 11.0535C43.6259 9.02298 41.9168 7.49092 39.8678 7.49092C38.6723 7.49092 37.5503 8.03601 36.8008 8.93059C37.4567 9.27972 38.0223 9.79668 38.4281 10.4383C38.6966 10.8625 38.5695 11.4244 38.1448 11.6934C37.9938 11.7886 37.8255 11.8339 37.6597 11.8339C37.3576 11.8339 37.0626 11.6841 36.8897 11.4101C36.5276 10.8353 35.9187 10.4182 35.2646 10.2935C35.2419 10.2893 35.2213 10.2801 35.1987 10.2742C35.0338 10.2389 34.8613 10.2201 34.6846 10.2201C33.2294 10.2196 32.0462 11.4026 32.0462 12.8574L32.0463 12.8574ZM48.4174 32.0473H43.87C43.3699 32.0473 42.9603 32.4564 42.9603 32.9566C42.9603 33.4568 43.3699 33.8659 43.87 33.8659H48.4179C48.918 33.8659 49.3272 33.4568 49.3272 32.9566C49.3267 32.4564 48.9176 32.0473 48.4174 32.0473Z" fill="#71B0C5"/>
</svg>
