<svg width="20" height="20" viewBox="0 0 20 20" fill="none" xmlns="http://www.w3.org/2000/svg">
<path d="M19.9672 19.1765L17.7575 12.5484C17.7268 12.4562 17.6752 12.3727 17.6065 12.3039L6.04083 0.730284C5.5716 0.262583 4.93641 0 4.2742 0C3.61181 0 2.97658 0.262543 2.50757 0.730284L0.730931 2.50781C0.262936 2.97692 0 3.61261 0 4.27533C0 4.93805 0.262927 5.57373 0.730931 6.04284L12.3076 17.6055C12.3763 17.6742 12.4598 17.7259 12.5519 17.7566L19.1767 19.9673C19.4014 20.043 19.6495 19.9849 19.8172 19.8171C19.9849 19.6493 20.043 19.4011 19.9674 19.1763L19.9672 19.1765ZM1.62557 3.38315L3.4022 1.60562C3.63758 1.36943 3.95734 1.23678 4.2905 1.23678C4.62385 1.23678 4.94341 1.36943 5.17879 1.60562L6.35361 2.78102L2.80038 6.32708L1.62557 5.15168C1.39122 4.91721 1.25967 4.59903 1.25967 4.26739C1.25967 3.93574 1.39122 3.61759 1.62557 3.3831V3.38315ZM3.68423 7.21141L4.79464 6.10044L13.7221 15.0324V15.0326C13.9601 15.2707 14.3071 15.3637 14.6323 15.2765C14.9574 15.1893 15.2114 14.9352 15.2985 14.6098C15.3856 14.2846 15.2926 13.9374 15.0546 13.6993L6.12716 4.76738L7.23758 3.6564L16.6204 13.0841L17.6308 16.1192L16.1207 17.63L13.0871 16.6191L3.68423 7.21141Z" fill="#A6D885"/>
</svg>
