<svg width="45" height="42" viewBox="0 0 45 42" fill="none" xmlns="http://www.w3.org/2000/svg">
<path d="M20.9497 13.9736C15.3408 11.4877 9.22504 10.156 3.01645 10.0682H2.33427C1.89207 10.0778 1.4715 10.2499 1.16392 10.5469C0.856643 10.844 0.686698 11.2419 0.691506 11.655V34.3858C0.694939 34.805 0.878616 35.2055 1.201 35.4975C1.52819 35.7897 1.96558 35.9499 2.41846 35.9438H3.02065C8.84718 36.0287 14.5897 37.2477 19.8825 39.5228C20.3363 39.7141 20.863 39.6785 21.2826 39.4286C21.7024 39.1786 21.9586 38.7476 21.9637 38.283V15.4701C21.9641 15.1567 21.869 14.8494 21.6894 14.5847C21.5098 14.3197 21.2534 14.1079 20.9495 13.974L20.9497 13.9736ZM20.6352 38.2581H20.6355C20.6362 38.3036 20.6108 38.3463 20.5689 38.3697C20.5253 38.3934 20.4711 38.3934 20.4275 38.3697C14.9604 36.0289 9.03068 34.7789 3.01633 34.6997H2.3829C2.28883 34.7049 2.19682 34.6715 2.13056 34.6087C2.05983 34.545 2.01967 34.4568 2.02001 34.3649V11.6348C2.01966 11.4509 2.17691 11.3003 2.37397 11.2958H3.02045C9.03516 11.3846 14.9595 12.6785 20.3912 15.0898C20.5402 15.1599 20.6342 15.3019 20.6349 15.4576L20.6352 38.2581ZM20.2857 11.3453C20.573 11.5337 20.6537 11.8984 20.4697 12.1778C20.2853 12.4569 19.9001 12.554 19.5904 12.3992C12.6474 8.41109 6.61602 7.36133 4.67715 7.08866L4.42481 8.36146C4.35889 8.70368 4.00801 8.93151 3.641 8.86966C3.27433 8.80814 3.03023 8.48066 3.09649 8.13843L3.37974 6.7083C3.48994 6.1485 4.05025 5.76715 4.65521 5.84057C6.46619 6.05526 12.9001 7.09668 20.2857 11.3453ZM20.7859 10.403C15.3528 6.05529 10.3708 4.18334 8.73257 3.64177L8.28968 4.71203C8.15303 5.03055 7.76543 5.18499 7.42416 5.05714C7.08289 4.92961 6.91741 4.56784 7.0544 4.24932L7.57694 3.00958C7.80628 2.4924 8.42391 2.2274 8.99382 2.40204C10.4948 2.89391 15.8572 4.81138 21.6536 9.46091C21.9324 9.68906 21.9602 10.0851 21.7157 10.3453C21.4709 10.6055 21.0469 10.6314 20.7682 10.403L20.7859 10.403ZM42.6557 10.0764H41.9739C35.769 10.1629 29.656 11.4921 24.0495 13.9739C23.7463 14.1075 23.4905 14.3187 23.311 14.5827C23.1314 14.8468 23.036 15.1531 23.0353 15.4659V38.2624C23.0404 38.727 23.2969 39.1576 23.7164 39.4079C24.1363 39.6579 24.6627 39.6934 25.1165 39.5021C30.4116 37.2322 36.1565 36.0187 41.9828 35.9395H42.5849C43.0378 35.9459 43.4755 35.7857 43.8027 35.4931C44.1302 35.1961 44.3142 34.7872 44.3118 34.3607V11.6307C44.3074 11.2221 44.1323 10.8312 43.8236 10.5409C43.5153 10.2509 43.0978 10.0843 42.6601 10.0766L42.6557 10.0764ZM42.9747 34.3651C42.9747 34.457 42.9348 34.5451 42.8638 34.6089C42.7958 34.6746 42.7003 34.7092 42.6025 34.7041H41.9694C35.9558 34.789 30.0268 36.0448 24.5627 38.3904C24.5187 38.4141 24.4648 38.4141 24.4209 38.3904C24.379 38.367 24.3539 38.3244 24.3546 38.2789V15.4701C24.355 15.3144 24.449 15.1721 24.598 15.1022C30.0345 12.689 35.9632 11.3952 41.9828 11.3083H42.6293C42.8263 11.3128 42.9836 11.4631 42.9836 11.6473L42.9747 34.3651ZM24.4965 12.201C24.4035 12.0607 24.374 11.8918 24.4145 11.731C24.4553 11.5704 24.5628 11.4317 24.7135 11.3455C32.0994 7.09683 38.5334 6.05544 40.3264 5.83658C40.9317 5.76128 41.4933 6.14356 41.6019 6.70431L41.8851 8.13444C41.951 8.47667 41.7073 8.80415 41.3406 8.86568C40.9736 8.92752 40.6227 8.70002 40.5568 8.35747L40.3045 7.08467C38.3651 7.33685 32.3338 8.4071 25.3912 12.3994C25.0791 12.5779 24.6712 12.4872 24.479 12.1969L24.4965 12.201ZM36.266 3.6419C34.6276 4.17927 29.6241 6.05542 24.2083 10.4031C23.9295 10.6315 23.5051 10.6056 23.2607 10.3454C23.0163 10.0852 23.0441 9.68915 23.3228 9.46102C29.1411 4.81149 34.5034 2.89401 36.0046 2.40215C36.5821 2.21854 37.2127 2.48899 37.4393 3.0177L37.9618 4.25744V4.25776C38.0988 4.57595 37.9333 4.93772 37.5921 5.06558C37.2508 5.19343 36.8632 5.03898 36.7262 4.72047L36.266 3.6419Z" fill="#71B0C5"/>
</svg>
