<svg width="45" height="42" viewBox="0 0 45 42" fill="none" xmlns="http://www.w3.org/2000/svg">
<path d="M20.9496 13.9746C15.3408 11.4886 9.22498 10.1569 3.01639 10.0692H2.33421C1.89201 10.0788 1.47144 10.2508 1.16386 10.5479C0.856582 10.8449 0.686637 11.2429 0.691445 11.656V34.3868C0.694878 34.806 0.878555 35.2065 1.20094 35.4984C1.52813 35.7907 1.96552 35.9509 2.4184 35.9448H3.02059C8.84712 36.0297 14.5896 37.2487 19.8824 39.5237C20.3363 39.715 20.8629 39.6795 21.2825 39.4295C21.7024 39.1796 21.9585 38.7486 21.9637 38.284V15.4711C21.964 15.1577 21.8689 14.8504 21.6893 14.5857C21.5098 14.3207 21.2533 14.1089 20.9495 13.975L20.9496 13.9746ZM20.6351 38.2591H20.6355C20.6361 38.3046 20.6107 38.3472 20.5688 38.3706C20.5252 38.3943 20.471 38.3943 20.4274 38.3706C14.9603 36.0299 9.03062 34.7799 3.01627 34.7007H2.38284C2.28877 34.7058 2.19676 34.6725 2.1305 34.6097C2.05977 34.5459 2.0196 34.4578 2.01995 34.3659V11.6358C2.0196 11.4519 2.17685 11.3013 2.37391 11.2968H3.02039C9.03509 11.3856 14.9595 12.6794 20.3911 15.0907C20.5401 15.1609 20.6342 15.3029 20.6348 15.4586L20.6351 38.2591ZM20.2856 11.3463C20.573 11.5347 20.6536 11.8994 20.4696 12.1788C20.2853 12.4579 19.9001 12.5549 19.5904 12.4002C12.6474 8.41206 6.61596 7.36231 4.67709 7.08964L4.42475 8.36243C4.35883 8.70466 4.00795 8.93248 3.64094 8.87064C3.27427 8.80912 3.03017 8.48163 3.09643 8.13941L3.37968 6.70927C3.48988 6.14948 4.05018 5.76813 4.65514 5.84155C6.46613 6.05624 12.9001 7.09766 20.2856 11.3463ZM20.7858 10.4039C15.3528 6.05627 10.3708 4.18432 8.73251 3.64275L8.28962 4.71301C8.15297 5.03152 7.76537 5.18597 7.42409 5.05812C7.08283 4.93058 6.91735 4.56882 7.05434 4.2503L7.57688 3.01056C7.80622 2.49338 8.42385 2.22837 8.99376 2.40302C10.4948 2.89489 15.8571 4.81236 21.6535 9.46189C21.9323 9.69004 21.9601 10.0861 21.7157 10.3463C21.4709 10.6065 21.0469 10.6324 20.7681 10.4039L20.7858 10.4039ZM42.6557 10.0774H41.9738C35.7689 10.1639 29.6559 11.4931 24.0494 13.9749C23.7462 14.1085 23.4905 14.3197 23.3109 14.5837C23.1314 14.8477 23.0359 15.1541 23.0352 15.4668V38.2633C23.0404 38.728 23.2968 39.1586 23.7164 39.4089C24.1363 39.6588 24.6626 39.6944 25.1165 39.5031C30.4115 37.2331 36.1564 36.0196 41.9827 35.9405H42.5849C43.0377 35.9469 43.4755 35.7867 43.8026 35.4941C44.1301 35.1971 44.3142 34.7882 44.3118 34.3617V11.6316C44.3073 11.2231 44.1322 10.8322 43.8236 10.5419C43.5152 10.2519 43.0978 10.0852 42.6601 10.0775L42.6557 10.0774ZM42.9746 34.366C42.9746 34.458 42.9348 34.5461 42.8637 34.6099C42.7957 34.6756 42.7003 34.7102 42.6024 34.7051H41.9694C35.9557 34.79 30.0268 36.0458 24.5626 38.3914C24.5187 38.4151 24.4648 38.4151 24.4208 38.3914C24.3789 38.368 24.3539 38.3254 24.3546 38.2799V15.4711C24.3549 15.3154 24.449 15.1731 24.598 15.1032C30.0344 12.69 35.9631 11.3961 41.9827 11.3093H42.6292C42.8263 11.3138 42.9835 11.464 42.9835 11.6483L42.9746 34.366ZM24.4965 12.202C24.4034 12.0617 24.3739 11.8928 24.4144 11.7319C24.4553 11.5714 24.5627 11.4326 24.7134 11.3465C32.0993 7.09781 38.5334 6.05642 40.3263 5.83756C40.9316 5.76226 41.4933 6.14454 41.6018 6.70529L41.8851 8.13542C41.951 8.47765 41.7072 8.80513 41.3405 8.86665C40.9735 8.9285 40.6227 8.70099 40.5567 8.35845L40.3044 7.08565C38.365 7.33783 32.3338 8.40808 25.3911 12.4004C25.079 12.5789 24.6712 12.4882 24.4789 12.1979L24.4965 12.202ZM36.2659 3.64287C34.6275 4.18024 29.624 6.05639 24.2082 10.4041C23.9294 10.6325 23.5051 10.6066 23.2606 10.3464C23.0162 10.0862 23.044 9.69012 23.3228 9.462C29.1411 4.81246 34.5033 2.89498 36.0045 2.40312C36.582 2.21951 37.2127 2.48996 37.4393 3.01868L37.9618 4.25842V4.25874C38.0988 4.57693 37.9333 4.9387 37.592 5.06656C37.2508 5.19441 36.8632 5.03996 36.7262 4.72145L36.2659 3.64287Z" fill="#A6D885"/>
</svg>
